<?xml version="1.0" encoding="UTF-8" standalone="no"?>
<!-- Created with Inkscape (http://www.inkscape.org/) -->

<svg
   width="154.91441mm"
   height="63.098129mm"
   viewBox="0 0 154.91441 63.098129"
   version="1.1"
   id="svg1"
   xml:space="preserve"
   inkscape:version="1.4 (86a8ad7, 2024-10-11)"
   sodipodi:docname="logo.svg"
   xmlns:inkscape="http://www.inkscape.org/namespaces/inkscape"
   xmlns:sodipodi="http://sodipodi.sourceforge.net/DTD/sodipodi-0.dtd"
   xmlns="http://www.w3.org/2000/svg"
   xmlns:svg="http://www.w3.org/2000/svg"><sodipodi:namedview
     id="namedview1"
     pagecolor="#ffffff"
     bordercolor="#000000"
     borderopacity="0.25"
     inkscape:showpageshadow="2"
     inkscape:pageopacity="0.0"
     inkscape:pagecheckerboard="true"
     inkscape:deskcolor="#d1d1d1"
     inkscape:document-units="mm"
     inkscape:zoom="256"
     inkscape:cx="273.44531"
     inkscape:cy="451.5918"
     inkscape:window-width="1366"
     inkscape:window-height="705"
     inkscape:window-x="-8"
     inkscape:window-y="-8"
     inkscape:window-maximized="1"
     inkscape:current-layer="layer1"
     showgrid="false" /><defs
     id="defs1"><inkscape:path-effect
       effect="bspline"
       id="path-effect6"
       is_visible="true"
       lpeversion="1.3"
       weight="33.333333"
       steps="2"
       helper_size="0"
       apply_no_weight="true"
       apply_with_weight="true"
       only_selected="false"
       uniform="false" /><inkscape:path-effect
       effect="bspline"
       id="path-effect5"
       is_visible="true"
       lpeversion="1.3"
       weight="33.333333"
       steps="2"
       helper_size="0"
       apply_no_weight="true"
       apply_with_weight="true"
       only_selected="false"
       uniform="false" /></defs><g
     inkscape:label="Layer 1"
     inkscape:groupmode="layer"
     id="layer1"
     transform="translate(-19.986834,-124.40366)"><g
       id="g3"
       transform="matrix(0.93759606,0,0,0.93759606,-10.032873,21.313834)"><path
         style="fill:#f76506"
         d="m 113.17552,169.81956 c 0.1819,-0.0734 0.47956,-0.0734 0.66146,0 0.1819,0.0734 0.0331,0.13345 -0.33073,0.13345 -0.3638,0 -0.51263,-0.0601 -0.33073,-0.13345 z m 1.32292,0 c 0.1819,-0.0734 0.47955,-0.0734 0.66145,0 0.18191,0.0734 0.0331,0.13345 -0.33072,0.13345 -0.36381,0 -0.51263,-0.0601 -0.33073,-0.13345 z m 14.13083,-0.35394 c 0,-0.3638 0.0601,-0.51263 0.13346,-0.33073 0.0734,0.18191 0.0734,0.47956 0,0.66146 -0.0734,0.1819 -0.13346,0.0331 -0.13346,-0.33073 z m 36.33352,-15.18538 c -1.13767,-0.49571 -2.38119,-2.01762 -2.86774,-3.50974 -1.87487,-5.74962 -1.38536,-18.61318 0.83739,-22.00552 0.23495,-0.35858 0.89616,-0.99168 1.46936,-1.40691 0.88105,-0.63823 1.29745,-0.75495 2.69338,-0.75495 1.43138,0 1.82237,0.11614 2.93687,0.87234 1.40951,0.95638 2.41207,2.59937 2.53524,4.15475 l 0.0733,0.92604 -1.63936,0.0784 -1.63935,0.0784 -0.17724,-0.94477 c -0.20806,-1.10907 -0.96484,-1.72557 -2.11816,-1.72557 -1.70542,0 -2.18485,1.25138 -2.55463,6.66798 -0.20501,3.00301 -0.20201,5.18091 0.0108,7.85794 0.39155,4.92526 0.95128,6.19977 2.72278,6.19977 1.46672,0 1.91602,-0.80126 2.0401,-3.63825 l 0.10943,-2.50192 -1.15531,-0.0829 -1.15531,-0.0829 -0.0836,-1.1694 c -0.046,-0.64318 -0.0129,-1.45098 0.0735,-1.79512 0.15393,-0.6133 0.21069,-0.62421 2.86168,-0.55039 l 2.70463,0.0753 -0.0129,4.63021 c -0.0122,4.39806 -0.0461,4.69654 -0.67498,5.95313 -0.96109,1.92025 -2.70621,3.04619 -4.69988,3.03235 -0.8203,-0.006 -1.85085,-0.16696 -2.29012,-0.35836 z M 38.530764,153.93319 c -0.218249,-0.21825 -0.192386,-24.37802 0.02785,-26.02003 l 0.149126,-1.11182 3.515853,0.11924 c 3.257913,0.11049 3.593652,0.17073 4.576295,0.82101 2.772907,1.83502 3.670181,6.64702 1.964589,10.53591 l -0.652573,1.48793 0.805066,1.42649 c 1.99894,3.54193 1.595057,9.32854 -0.803204,11.50786 -1.359359,1.23526 -2.12119,1.42001 -5.855491,1.42001 -1.947505,0 -3.624886,-0.084 -3.727515,-0.1866 z m 6.657957,-3.66755 c 0.891569,-0.62448 1.377946,-2.08092 1.377946,-4.1262 0,-3.13765 -1.199264,-4.6041 -3.603984,-4.40692 l -1.026224,0.0841 -0.07254,4.43178 -0.07254,4.43177 h 1.402734 c 0.845264,0 1.637957,-0.16476 1.994614,-0.41457 z m 0.04326,-13.02671 c 1.320933,-1.32093 1.40063,-4.62474 0.144265,-5.98038 -0.537706,-0.58019 -0.864021,-0.68668 -2.104237,-0.68668 h -1.467842 v 3.70417 3.70417 h 1.343269 c 1.118613,0 1.467245,-0.12398 2.084545,-0.74128 z m 13.505519,3.24219 v -13.63867 l 1.653646,0.0788 1.653646,0.0788 0.06855,13.55989 0.06855,13.5599 H 60.459695 58.7375 Z m 15.345833,1.87734 v -11.76134 l -1.653646,-0.0788 -1.653645,-0.0788 V 128.71979 127 l 5.080176,-0.0718 5.080177,-0.0718 0.136983,0.86556 c 0.07534,0.47606 0.09641,1.16322 0.04682,1.52703 -0.04959,0.3638 -0.105358,0.81028 -0.12393,0.99218 -0.0232,0.2272 -0.572124,0.33073 -1.753559,0.33073 h -1.719792 v 11.77396 11.77396 h -1.719791 -1.719792 z m 14.2875,-1.87043 v -13.63175 l 5.093229,0.0719 5.093229,0.0719 v 1.71979 1.71979 l -3.439583,0.13229 -3.439584,0.13229 v 3.3073 3.30729 l 1.984375,0.13229 1.984375,0.13229 v 1.71979 1.71979 l -1.984375,0.1323 -1.984375,0.13229 -0.07085,6.41614 -0.07085,6.41615 h -1.582796 -1.582796 z m 52.387497,-0.0288 v -13.66055 l 3.50573,0.12278 c 4.06583,0.14241 5.10627,0.51703 6.63044,2.38735 1.15205,1.41369 1.50215,2.66675 1.50402,5.38312 0.002,2.72614 -0.52531,4.28822 -1.88603,5.58826 -0.88391,0.84449 -1.03291,1.13561 -0.92182,1.80106 0.10475,0.62751 1.29316,5.70914 2.67904,11.4555 0.14318,0.59367 0.1056,0.60579 -1.64076,0.52917 l -1.78728,-0.0784 -0.44355,-2.11667 c -0.57939,-2.76492 -2.07066,-9.39529 -2.24646,-9.98802 -0.0962,-0.32438 -0.40927,-0.46302 -1.04553,-0.46302 h -0.90822 v 6.35 6.35 h -1.71979 -1.71979 z m 7.08119,-3.15771 c 1.58667,-1.4782 1.45205,-5.11798 -0.23294,-6.29819 -0.38058,-0.26657 -1.14962,-0.43146 -2.01233,-0.43146 h -1.39634 v 3.73597 3.73597 l 1.54217,-0.11155 c 1.05058,-0.076 1.71981,-0.27705 2.09944,-0.63074 z m 32.60631,3.18639 v -13.63188 l 4.96094,0.072 4.96094,0.072 v 1.71979 1.71979 l -3.3073,0.0731 -3.30729,0.0731 0.0809,3.43264 0.0808,3.43264 h 2.10196 2.10196 v 1.85208 1.85209 h -2.10513 -2.10512 l -0.0777,4.76281 -0.0777,4.76282 3.50573,-3.2e-4 3.50573,-3.1e-4 v 1.71979 1.71979 h -5.15937 -5.15938 z m -69.58541,11.41532 c 0,-0.0549 0.20836,-0.2633 0.46302,-0.46302 0.41964,-0.32911 0.429,-0.31975 0.0999,0.0999 -0.34564,0.44073 -0.56291,0.58089 -0.56291,0.36313 z m 14.83755,-0.31903 c 0.0127,-0.30823 0.0754,-0.37092 0.15985,-0.15985 0.0764,0.19099 0.067,0.4192 -0.0209,0.50711 -0.0879,0.0879 -0.15045,-0.0683 -0.13896,-0.34726 z m -15.92964,-2.42535 c -0.3291,-0.41964 -0.31975,-0.429 0.0999,-0.0999 0.44073,0.34564 0.58089,0.56291 0.36312,0.56291 -0.0549,0 -0.2633,-0.20836 -0.46302,-0.46302 z m 22.1882,-2.74481 c 0.17947,-0.18082 0.39297,-0.26211 0.47443,-0.18065 0.0815,0.0815 -0.0654,0.2294 -0.32632,0.32876 -0.37709,0.14359 -0.40748,0.1132 -0.14811,-0.14811 z m -28.09056,-5.07181 c 0.0994,-0.26094 0.2473,-0.40778 0.32876,-0.32632 0.0815,0.0815 1.7e-4,0.29496 -0.18065,0.47443 -0.26131,0.25937 -0.2917,0.22898 -0.14811,-0.14811 z m 18.12783,-0.87053 c 0.0127,-0.30823 0.0754,-0.37092 0.15986,-0.15985 0.0764,0.19099 0.067,0.4192 -0.0209,0.50711 -0.0879,0.0879 -0.15045,-0.0684 -0.13897,-0.34726 z m -18.8063,-0.37483 c -0.61575,-0.1972 -0.6214,-0.21366 -0.0818,-0.23821 0.31883,-0.0145 0.65328,0.0927 0.74322,0.23821 0.0899,0.14552 0.12673,0.25272 0.0818,0.23821 -0.045,-0.0145 -0.37942,-0.1217 -0.74322,-0.23821 z m 18.85748,-3.96875 c 0,-0.65484 0.0516,-0.92273 0.11466,-0.59531 0.0631,0.32742 0.0631,0.8632 0,1.19062 -0.0631,0.32743 -0.11466,0.0595 -0.11466,-0.59531 z m -18.70818,-1.92964 c 0.0994,-0.26094 0.24731,-0.40778 0.32877,-0.32632 0.0815,0.0815 1.7e-4,0.29496 -0.18066,0.47443 -0.2613,0.25937 -0.29169,0.22898 -0.14811,-0.14811 z m 32.26403,0.0806 c -0.0927,-0.14998 0.0135,-0.19434 0.24897,-0.10398 0.45837,0.17589 0.54223,0.36553 0.16165,0.36553 -0.13694,0 -0.32171,-0.1177 -0.41062,-0.26155 z m -17.24526,-3.83949 c 0.001,-1.01865 0.049,-1.40294 0.10627,-0.85399 0.0573,0.54894 0.0563,1.38238 -0.002,1.85208 -0.0585,0.4697 -0.10531,0.0206 -0.10414,-0.99809 z M 103.6554,127.6169 c 0.15375,-0.15375 0.43572,-0.22749 0.6266,-0.16386 0.19816,0.0661 0.0782,0.18598 -0.27954,0.27954 -0.4401,0.11509 -0.5434,0.0807 -0.34706,-0.11568 z m 14.67473,-8.15752 c 0,-0.50932 0.0545,-0.71768 0.121,-0.46302 0.0665,0.25466 0.0665,0.67138 0,0.92604 -0.0666,0.25466 -0.121,0.0463 -0.121,-0.46302 z m 1.33272,-1.50627 c 0.25743,-0.0671 0.61462,-0.0627 0.79375,0.01 0.17913,0.0725 -0.0315,0.12736 -0.46806,0.12196 -0.43656,-0.005 -0.58312,-0.0647 -0.32569,-0.13177 z m -5.05649,-2.46248 c 0,-0.3638 0.0601,-0.51263 0.13345,-0.33073 0.0734,0.1819 0.0734,0.47956 0,0.66146 -0.0734,0.1819 -0.13345,0.0331 -0.13345,-0.33073 z"
         id="path4" /><path
         style="fill:#150d14"
         d="m 133.61458,175.10044 c -1.29297,-0.24425 -2.72652,-2.09373 -2.99408,-3.86279 l -0.15216,-1.0061 1.24239,0.0801 c 1.0985,0.0708 1.25285,0.15666 1.33266,0.74151 0.21711,1.59089 2.02525,2.17634 2.8472,0.92189 0.87636,-1.33749 0.28189,-2.84147 -2.73187,-6.9115 -2.27886,-3.07756 -2.67544,-4.68986 -1.68823,-6.86347 0.69307,-1.52601 1.68281,-2.22817 3.14073,-2.22817 1.98814,0 3.43585,1.25592 3.88863,3.37344 l 0.18386,0.8599 h -1.1585 c -1.08382,0 -1.18008,-0.0597 -1.49335,-0.92605 -0.27464,-0.75948 -0.46872,-0.92604 -1.07909,-0.92604 -0.81138,0 -1.18111,0.33245 -1.4105,1.26827 -0.2481,1.01214 0.20137,1.99831 1.96859,4.31921 0.92876,1.21975 2.02642,2.93211 2.43923,3.80523 0.65157,1.37809 0.73437,1.81648 0.62769,3.32336 -0.18191,2.5698 -1.13511,3.74941 -3.24918,4.02098 -0.57891,0.0744 -1.35022,0.079 -1.71402,0.0103 z m -33.3375,-9.60357 v -9.26041 h 1.19063 1.19062 v 8.06979 8.06979 h 2.38125 2.38125 v 1.19063 1.19062 h -3.57187 -3.57188 z m 8.83708,8.81282 c 0.0832,-0.26314 0.45417,-1.96672 0.82438,-3.78573 0.3702,-1.81901 0.97346,-4.73605 1.34058,-6.4823 0.36712,-1.74625 0.86843,-4.21679 1.11403,-5.4901 l 0.44653,-2.3151 h 1.20503 1.20502 l 0.47018,2.3151 c 0.9322,4.59008 3.08348,15.0284 3.22028,15.62527 0.1326,0.57857 0.0753,0.60598 -1.10648,0.52917 l -1.24632,-0.081 -0.46918,-2.18696 c -0.25805,-1.20283 -0.54162,-2.30415 -0.63015,-2.44739 -0.23014,-0.37238 -2.70504,-0.32402 -2.9408,0.0575 -0.10806,0.17484 -0.38746,1.27617 -0.6209,2.44739 l -0.42441,2.1295 -1.26954,0.0816 c -1.12254,0.0721 -1.25201,0.0262 -1.11825,-0.39688 z m 5.96031,-7.55605 c -0.0692,-1.18665 -0.99608,-5.2843 -1.12219,-4.96093 -0.0851,0.21828 -0.32214,1.4982 -0.52671,2.84427 l -0.37193,2.44739 h 1.02005 c 0.64994,0 1.01306,-0.12 1.00078,-0.33073 z m 5.57553,-1.25677 v -9.26041 h 2.36402 c 2.92038,0 3.50532,0.21399 4.43819,1.62366 0.6562,0.99159 0.738,1.35362 0.73472,3.25181 -0.003,1.49357 -0.13739,2.38203 -0.4482,2.95408 -0.42843,0.7885 -0.42112,0.86429 0.20213,2.09536 0.52723,1.0414 0.64656,1.67207 0.64623,3.41524 -4.8e-4,2.50616 -0.4648,3.67165 -1.82466,4.58009 -0.78276,0.52292 -1.23612,0.60059 -3.50573,0.60059 H 120.65 Z m 5.07608,6.07601 c 0.34782,-0.46783 0.50436,-1.13817 0.51722,-2.21485 0.0245,-2.05149 -0.57169,-2.90219 -2.11402,-3.01647 l -1.09803,-0.0814 v 3.07313 3.07314 l 1.09803,-0.0814 c 0.81041,-0.06 1.22867,-0.25709 1.5968,-0.75223 z m -0.19629,-8.51613 c 0.24091,-0.34395 0.41188,-1.14321 0.41188,-1.9255 0,-1.81797 -0.51669,-2.51354 -1.86709,-2.51354 h -1.04333 v 2.51354 2.51354 h 1.04333 c 0.77821,0 1.14799,-0.14943 1.45521,-0.58804 z m -88.355831,-7.08488 c 0.107459,-0.17387 10.453789,-0.26458 30.178114,-0.26458 19.83334,0 30.014593,0.0898 30.014593,0.26458 0,0.17485 -10.23576,0.26459 -30.178114,0.26459 -20.051369,0 -30.123242,-0.0888 -30.014593,-0.26459 z m 102.790621,0 c 0,-0.17457 8.72605,-0.26458 25.64897,-0.26458 16.81391,0 25.70529,0.0911 25.81249,0.26458 0.10859,0.1757 -8.50802,0.26459 -25.64897,0.26459 -17.03194,0 -25.81249,-0.09 -25.81249,-0.26459 z m -22.88179,-2.18281 c -0.0611,-0.1819 -0.14661,-0.62839 -0.19013,-0.99219 -0.0626,-0.52314 -0.2488,-0.67804 -0.89055,-0.74075 -0.65761,-0.0643 -0.87127,0.052 -1.12704,0.61338 -0.22767,0.49967 -0.48077,0.66919 -0.90836,0.6084 -0.50746,-0.0721 -0.58423,-0.22829 -0.5335,-1.08521 0.0497,-0.83934 -0.0472,-1.04946 -0.60028,-1.30145 -0.57566,-0.26228 -0.75543,-0.20864 -1.41339,0.42172 -0.68603,0.65727 -0.79133,0.68475 -1.17056,0.30551 -0.33339,-0.33338 -0.36126,-0.57578 -0.13941,-1.21218 0.48465,-1.39028 -0.47366,-2.00157 -1.78787,-1.14046 -0.60432,0.39596 -0.70726,0.39846 -1.07949,0.0262 -0.37223,-0.37223 -0.36588,-0.48863 0.0666,-1.22073 0.45945,-0.77777 0.45962,-0.82963 0.004,-1.33268 -0.3765,-0.41603 -0.60757,-0.47251 -1.12627,-0.27531 -1.50355,0.57165 -2.15891,-0.13028 -1.13711,-1.21794 0.52112,-0.5547 0.56355,-0.7392 0.30202,-1.31321 -0.27168,-0.59628 -0.41403,-0.65029 -1.32847,-0.50406 -0.89049,0.14239 -1.0432,0.091 -1.16986,-0.39329 -0.10582,-0.40465 0.0681,-0.72438 0.63571,-1.1686 0.69136,-0.54107 0.75024,-0.69347 0.511,-1.32274 -0.22289,-0.58623 -0.43429,-0.71121 -1.203,-0.71121 -0.80824,0 -0.93259,-0.0847 -0.93259,-0.63558 0,-0.47149 0.20964,-0.70865 0.81204,-0.91865 0.67739,-0.23614 0.79804,-0.40356 0.7276,-1.00965 -0.0653,-0.56226 -0.27889,-0.78201 -0.94432,-0.9717 -0.6436,-0.18348 -0.8599,-0.39528 -0.8599,-0.84204 0,-0.4719 0.20777,-0.64573 0.99219,-0.8301 0.78074,-0.1835 1.00871,-0.37286 1.06975,-0.88853 0.0586,-0.49537 -0.1226,-0.77357 -0.74244,-1.13972 -1.0888,-0.64317 -0.95913,-1.33623 0.27017,-1.44394 0.83417,-0.0731 1.58533,-0.61777 1.58533,-1.14954 0,-0.11182 -0.31454,-0.49496 -0.69899,-0.85144 -1.00988,-0.93642 -0.69208,-1.56249 0.73426,-1.44651 1.48491,0.12074 1.8523,-0.43472 1.15004,-1.73873 -0.68728,-1.27621 -0.28705,-1.73957 1.07664,-1.24645 0.73375,0.26533 1.02253,0.26985 1.32274,0.0207 0.44081,-0.36584 0.51006,-1.20317 0.11948,-1.44457 -0.31474,-0.19452 -0.35635,-0.92604 -0.0527,-0.92604 0.11655,0 1.06653,0.72473 2.11105,1.6105 l 1.89914,1.61051 -1.64803,1.63276 c -1.85754,1.84034 -2.89665,3.5877 -3.4914,5.8711 -1.1416,4.3829 0.12552,8.91831 3.39893,12.16584 2.52802,2.50803 5.15046,3.54916 8.96998,3.56115 3.47323,0.0109 6.57524,-1.34005 8.97995,-3.91088 2.36249,-2.52569 3.38097,-5.13332 3.38097,-8.65633 0,-3.65547 -1.10133,-6.27653 -3.76463,-8.95945 -0.99459,-1.00192 -1.77482,-1.84195 -1.73384,-1.86673 0.1793,-0.10843 3.28431,-2.69801 3.64458,-3.03958 0.34716,-0.32913 0.41044,-0.31695 0.48964,0.0943 0.05,0.25973 -0.0393,0.60246 -0.19844,0.76163 -0.40757,0.40757 -0.35961,0.9449 0.12787,1.43237 0.37388,0.37388 0.50453,0.37609 1.25677,0.0213 1.41565,-0.66776 1.99046,0.03 1.08715,1.31966 -0.24549,0.35048 -0.34336,0.81285 -0.24059,1.13664 0.14806,0.4665 0.35241,0.53339 1.40601,0.46025 1.09248,-0.0759 1.24201,-0.0207 1.31397,0.48418 0.0497,0.34854 -0.13857,0.7237 -0.48482,0.96622 -0.36833,0.25799 -0.53531,0.61346 -0.47808,1.01774 0.0739,0.52194 0.2634,0.63407 1.1852,0.7013 0.84293,0.0615 1.12989,0.20481 1.23804,0.61838 0.10446,0.39947 -0.0612,0.65184 -0.64202,0.9783 -0.63353,0.35606 -0.76871,0.59132 -0.70887,1.23371 0.0619,0.66473 0.20282,0.80838 0.86683,0.88377 1.40124,0.15909 1.63915,1.23406 0.34721,1.56883 -0.6116,0.15848 -0.8985,0.4215 -1.041,0.95435 -0.17744,0.66346 -0.10597,0.7735 0.72899,1.12237 0.7177,0.29987 0.90703,0.51816 0.84256,0.97144 -0.0646,0.45451 -0.28879,0.60417 -1.00688,0.67233 -1.44157,0.13682 -1.83761,1.26849 -0.66377,1.8967 0.41513,0.22218 0.66146,0.58368 0.66146,0.97075 0,0.55235 -0.12137,0.61675 -1.16232,0.61675 -0.81581,0 -1.2102,0.12477 -1.32292,0.41852 -0.25412,0.66222 -0.19846,0.84851 0.42785,1.432 0.47064,0.43847 0.52952,0.63916 0.29411,1.0025 -0.30923,0.47727 -0.55807,0.50506 -1.73582,0.19386 -0.60476,-0.15979 -0.76912,-0.0848 -1.01974,0.46524 -0.24224,0.53166 -0.21074,0.79009 0.16649,1.3658 0.41197,0.62876 0.42015,0.75517 0.0714,1.10393 -0.34876,0.34876 -0.4892,0.33937 -1.22639,-0.082 -1.32972,-0.76008 -1.97849,-0.11307 -1.61003,1.60569 0.0582,0.27174 -0.0971,0.62495 -0.34521,0.7849 -0.35894,0.23139 -0.5882,0.16205 -1.12186,-0.3393 -0.58514,-0.5497 -0.75807,-0.59033 -1.35506,-0.31832 -0.59328,0.27032 -0.66026,0.42131 -0.5035,1.13505 0.29005,1.32055 -0.96405,1.82612 -1.51738,0.6117 -0.24729,-0.54274 -0.46597,-0.65911 -1.1188,-0.59531 -0.70541,0.0689 -0.82873,0.2003 -0.94373,1.00534 -0.18588,1.30111 -1.06983,1.41703 -1.60096,0.20993 -0.56313,-1.27983 -1.4672,-1.32401 -1.97998,-0.0968 -0.39955,0.95627 -1.33627,1.32199 -1.57377,0.61444 z m 2.02288,-11.79693 c -0.44774,-0.44774 -0.50017,-1.2755 -0.66622,-10.51719 -0.0991,-5.51716 -0.10302,-10.76168 -0.009,-11.65449 l 0.17157,-1.6233 1.35204,-0.12992 c 0.74362,-0.0714 1.48998,-0.077 1.65859,-0.0123 0.22323,0.0857 0.33358,3.07942 0.40599,11.01363 0.10135,11.10681 0.0241,12.77025 -0.61175,13.17311 -0.61268,0.38818 -1.79166,0.26034 -2.30157,-0.24957 z M 38.232292,124.75104 c 0.107544,-0.17401 11.027053,-0.26458 31.897906,-0.26458 20.979868,0 31.734382,0.0897 31.734382,0.26458 0,0.17492 -10.809022,0.26458 -31.897903,0.26458 -21.197896,0 -31.843054,-0.0888 -31.734385,-0.26458 z m 99.351038,0 c 0,-0.17468 9.26042,-0.26458 27.25208,-0.26458 17.99167,0 27.25209,0.0899 27.25209,0.26458 0,0.17467 -9.26042,0.26458 -27.25209,0.26458 -17.99166,0 -27.25208,-0.0899 -27.25208,-0.26458 z m -22.06367,-7.73906 c -0.49812,-0.44798 -0.70525,-0.96777 -0.83694,-2.10026 -0.16054,-1.38055 -0.11898,-1.56098 0.50286,-2.18281 0.64439,-0.6444 0.82008,-0.67787 3.55752,-0.67787 2.51284,0 3.2788,0.11745 6.01323,0.92207 1.72347,0.50714 3.2227,1.06628 3.33162,1.24252 0.35396,0.57271 -0.30919,1.31074 -1.75048,1.94814 -2.37106,1.0486 -4.38585,1.44352 -7.36455,1.44352 -2.52219,0 -2.85515,-0.0574 -3.45326,-0.59531 z"
         id="path3" /></g><rect
       style="opacity:0.689459;fill:#009819;fill-opacity:1;stroke-width:0.232214;stroke-linecap:round;stroke-linejoin:round;paint-order:stroke markers fill"
       id="rect1"
       width="99.358055"
       height="124.06329"
       x="103.76984"
       y="203.35303"
       rx="21.744339"
       ry="40.785328" /><ellipse
       style="opacity:0.689459;fill:#ff6f10;fill-opacity:1;stroke-width:0.318029;stroke-linecap:round;stroke-linejoin:round;paint-order:stroke markers fill"
       id="path1"
       cx="146.73549"
       cy="351.31595"
       rx="60.151901"
       ry="50.753166" /><ellipse
       style="opacity:0.689459;fill:#712d00;stroke-width:0.318029;stroke-linecap:round;stroke-linejoin:round;paint-order:stroke markers fill"
       id="path2"
       cx="147.80962"
       cy="265.92175"
       rx="3.2224231"
       ry="1.3426763" /><path
       style="opacity:0.689459;fill:#ff6f10;fill-opacity:1;stroke-width:0.318029;stroke-linecap:round;stroke-linejoin:round;paint-order:stroke markers fill"
       d="m -9.0149729,275.85755 c 0,0 54.7811919,1.61121 54.7811919,1.61121 0,0 -1.297882,44.12798 -1.297882,44.12798"
       id="path5"
       inkscape:path-effect="#path-effect5"
       inkscape:original-d="m -9.0149729,275.85755 54.7811919,1.61121 -1.297882,44.12798" /><path
       style="opacity:0.689459;fill:#ff6f10;fill-opacity:1;stroke-width:0.318029;stroke-linecap:round;stroke-linejoin:round;paint-order:stroke markers fill"
       d="m 229.98141,250.61523 c 24.70524,-0.53707 49.41049,-1.07414 62.3897,7.87722 12.97922,8.95136 14.23237,27.39041 3.84878,36.78915 -10.38359,9.39874 -32.40304,9.75678 -45.82985,3.84888 -13.42681,-5.9079 -18.26035,-18.08125 -21.48279,-24.25756 -3.22244,-6.17632 -4.83362,-6.35534 -6.44483,-6.53436"
       id="path6"
       inkscape:path-effect="#path-effect6"
       inkscape:original-d="m 229.98141,250.61523 c 24.70524,-0.53707 49.41049,-1.07414 74.11572,-1.61121 1.2532,18.43979 2.50634,36.87884 3.75952,55.31826 -22.02035,0.35806 -44.0398,0.7161 -66.05969,1.07415 -4.83373,-12.17385 -9.66727,-24.3472 -14.5009,-36.5208 -1.61125,-0.17903 -3.22243,-0.35805 -4.83364,-0.53707" /><path
       style="opacity:0.689459;fill:none;fill-opacity:1;stroke-width:0.318029;stroke-linecap:round;stroke-linejoin:round;paint-order:stroke markers fill;stroke:#000000;stroke-opacity:1"
       d="m 242.33403,418.18125 c 2.39293,-4.71877 0.44985,-10.04364 1.07414,-15.03799 0.13507,-1.08054 0.23791,-2.17535 0.53707,-3.22242 0.0695,-0.24344 0.50567,-0.28585 0.53707,-0.53707 0.22205,-1.77642 -0.56612,-3.67234 0,-5.3707 0.0566,-0.16984 0.41049,0.12657 0.53707,0 0.40031,-0.40032 0.444,-1.05281 0.53707,-1.61121 0.11773,-0.70636 -0.0888,-1.43772 0,-2.14828 -0.66957,-1.40544 0.91402,-2.10157 1.07414,-3.22243 0.12659,-0.88613 -0.19417,-1.81155 0,-2.68536 0.47358,-2.1311 1.99155,-4.36342 2.68536,-6.44484 0.33967,-1.01902 -0.17659,-2.1629 0,-3.22243 0.30905,-1.85431 1.63654,-3.57961 2.14828,-5.3707 0.62222,-2.17776 0.52493,-4.24802 1.07414,-6.44485 0.42176,-1.68703 0.90562,-3.42244 1.61121,-4.83363 0.24576,-0.49152 -0.3644,-1.78388 0,-2.14828 0.12659,-0.12659 0.45701,0.16012 0.53707,0 0.41943,-0.83887 0.2271,-2.82959 0.53707,-3.7595 0.58489,-1.75465 2.01899,-3.16772 2.68536,-4.83363 0.13297,-0.33244 -0.11323,-0.73447 0,-1.07415 0.49678,-1.49033 1.83836,-2.489 2.68535,-3.75949 0.40312,-0.60469 1.23363,-2.84484 1.61121,-3.22242 0.12659,-0.12659 0.41048,0.12659 0.53707,0 0.12659,-0.12659 -0.0993,-0.38811 0,-0.53707 0.77338,-1.16007 2.23421,-2.23422 3.22242,-3.22242 0.53707,-0.53708 0.93187,-1.27154 1.61121,-1.61122 1.44713,-0.72356 3.20782,-0.53707 4.83364,-0.53707 5.42533,0 11.64527,0.64844 13.96382,6.44485 0.13298,0.33244 -0.0702,0.72305 0,1.07414 0.59452,2.97259 0.62921,0.19999 1.07416,3.7595 0.43294,3.46345 0,7.25934 0,10.7414 0,1.88069 0.84902,6.66996 -0.53708,8.05606 -0.40031,0.40031 -1.15832,0.1974 -1.61121,0.53707 -0.40507,0.30382 -0.59377,0.91402 -1.07414,1.07414 -0.67935,0.22645 -1.43657,-0.0791 -2.14828,0 -1.6826,-0.003 -3.19587,0.86942 -4.83364,1.07415 -1.58477,0.19809 -12.68189,0.31755 -13.96383,-0.53707 -0.42131,-0.28088 -0.88609,-0.60401 -1.07414,-1.07415 -0.34257,-0.85643 -1.16565,-11.14122 -1.07414,-11.27848 0.35805,-0.35805 0.71609,-0.71609 1.07414,-1.07414 0,-0.17902 -0.0801,-0.37695 0,-0.53707 0.28867,-0.57733 0.61772,-1.15479 1.07414,-1.61121 0.56612,-0.56612 1.58216,-0.50802 2.14828,-1.07414 0.66791,-0.66791 1.62456,-2.33176 2.68535,-2.68536 0.73757,-0.24585 7.75534,-0.27926 8.59313,0 0.35036,0.11679 2.49574,1.3268 2.68536,1.61122 0,3.0434 -0.35805,0.17902 0.53707,1.07414 0.25317,0.25318 0,0.71609 0,1.07414 0,0.78253 0.46442,4.36921 0,4.83363 -0.26854,0.26854 -1.34268,-0.26853 -1.61121,0 -0.12659,0.12659 0.12658,0.41049 0,0.53707 -0.37977,0.37977 -1.13085,-0.24018 -1.61122,0 -0.16012,0.0801 0.12659,0.41049 0,0.53708 -0.17827,0.17826 -4.11829,0.17826 -4.29656,0 -0.27732,-0.27732 -0.53707,-0.95477 -0.53707,-1.61122"
       id="path7" /><path
       style="opacity:0.689459;fill:none;fill-opacity:1;stroke:#000000;stroke-width:0.318029;stroke-linecap:round;stroke-linejoin:round;stroke-opacity:1;paint-order:stroke markers fill"
       d="m 206.35031,412.27347 c -1.58253,-10.69432 -3.22243,-21.39315 -3.22243,-32.22424 0,-5.16793 0.88669,-9.96629 1.61121,-15.03798 0.42987,-3.00908 0.0314,-6.09632 0.53707,-9.13019 0.73576,-4.41451 3.3839,-8.91608 5.37071,-12.8897 0.39624,-0.79248 1.22925,-2.84046 1.61121,-3.22242 0.83548,-0.83548 5.67,0.31568 6.44485,0.53707 0.27025,0.0772 7.254,1.8833 7.51898,2.14828 2.6608,2.6608 2.2704,5.07787 3.7595,8.05606 0.11322,0.22645 0.45701,0.29688 0.53707,0.53707 0.43411,1.30233 0,3.42677 0,4.83364 0,0.62418 0.45244,2.72767 -0.53707,3.22242 -0.32025,0.16012 -0.73447,-0.11323 -1.07414,0 -2.34511,0.7817 -4.03729,0.40126 -6.44485,0 -5.89089,-0.98182 -7.51899,0.27856 -7.51899,-6.44485 0,-2.10744 -0.63176,-4.24921 1.61122,-5.3707 1.13862,-0.56931 4.06946,0 5.3707,0 0.35805,0 0.82096,-0.25318 1.07414,0 0.37977,0.37976 0,3.16293 0,3.75949"
       id="path8" /><path
       style="opacity:0.689459;fill:none;fill-opacity:1;stroke:#000000;stroke-width:0.318029;stroke-linecap:round;stroke-linejoin:round;stroke-opacity:1;paint-order:stroke markers fill"
       d="m -27.275371,362.3259 c 1.083257,-5.04144 3.566887,-9.69073 5.370705,-14.5009 0.259175,-0.69114 0.206968,-1.48808 0.53707,-2.14828 0.05646,-0.11292 4.036433,-7.19383 4.296563,-7.51899 0.111837,-0.13979 0.376947,0.0801 0.537073,0 1.841516,-0.92076 2.7886,-1.07414 4.833633,-1.07414 3.1040148,0 6.500675,-0.14181 9.1301992,1.61121 1.61121137,1.07414 -1.0741412,0 1.61121137,1.61121 0.48544559,0.29127 1.15831407,0.1974 1.61121167,0.53707 0.3202469,0.24019 0.25400952,0.79108 0.53707056,1.07414 0.6709013,0.6709 2.0098009,0.62378 2.6853525,1.07414 1.5600749,1.04005 4.904096,4.40226 5.9077759,5.90778 0.099304,0.14895 -0.1265888,0.41048 0,0.53707 0.4197398,0.41974 1.6167108,0.35988 2.1482818,0.53707 0.493427,0.16447 2.462826,2.01477 2.685353,2.14828 0.485446,0.29127 1.210903,0.13676 1.611211,0.53707 0.126589,0.12659 -0.160123,0.45701 0,0.53707 0.320247,0.16013 0.726785,-0.0868 1.074141,0 2.627408,0.65685 4.763127,2.82873 7.518988,3.22243 2.908831,0.41554 10.076456,0.40189 12.889692,0 2.585558,-0.36937 5.774333,-5.50745 6.444847,-7.51899 0.543535,-1.63061 0.663781,-3.79166 1.611211,-5.37071 0.260518,-0.43419 0.793267,-0.65282 1.07414,-1.07414 0.19861,-0.29791 -0.160123,-0.75389 0,-1.07414 0.416179,-0.83236 1.326841,-1.83223 1.611212,-2.68535 0.113226,-0.33967 -0.113223,-0.73447 0,-1.07414 0.283983,-0.85195 1.64383,-1.10676 2.148282,-1.61121 0.283062,-0.28307 0.25401,-0.79108 0.537072,-1.07415 0.992643,-0.99264 2.484798,-1.72338 3.759494,-2.14828 1.127847,-0.37595 2.094574,-1.23526 3.222421,-1.61121 2.101612,-0.70053 6.147729,0 8.05606,0 1.29745,0 3.515405,-0.26364 4.833633,0 2.893034,0.57861 13.272714,6.82787 15.575047,9.1302 1.067062,1.06706 1.945108,3.1862 2.685351,4.29657 0.688552,1.03282 1.9968,1.65252 2.685352,2.68535 0.6653,0.99795 1.586799,4.27215 2.148284,4.83363 1.111216,1.11122 -0.04344,-1.69809 1.07414,0.53707 0.498864,0.99773 1.863045,3.22243 3.222424,3.22243"
       id="path9" /><path
       style="opacity:0.689459;fill:none;fill-opacity:1;stroke:#000000;stroke-width:0.318029;stroke-linecap:round;stroke-linejoin:round;stroke-opacity:1;paint-order:stroke markers fill"
       d="m 23.209257,380.04923 c -7.996096,-2.42771 9.357396,3.02204 -4.296564,-1.07414 -1.231636,-0.36949 -1.930392,-1.18054 -3.222423,-1.61121 -1.549686,-0.51657 -3.378069,-0.58896 -4.833635,-1.07415 -1.676369,-0.55879 0.179024,-0.35804 -0.537071,-1.07414 -1.7360265,-1.73602 -1.0741404,5.86415 -1.0741404,6.44485 0,4.98017 0.02918,9.47579 4.2965644,12.88971 0.53707,0.35803 1.074141,0.71606 1.611211,1.07412 0.358047,0 0.753894,-0.16012 1.074141,0 0.452898,0.22646 0.652829,0.79328 1.074141,1.07413 0.372643,0.24845 1.207292,-0.20195 1.611212,0 1.137658,0.56883 3.421808,1.21246 4.296564,-0.53705 0.08006,-0.16012 -0.126588,-0.4105 0,-0.53708 0.716094,-0.71609 0.537071,0.89512 0.537071,-0.53707"
       id="path10" /><path
       style="opacity:0.689459;fill:none;fill-opacity:1;stroke:#000000;stroke-width:0.318029;stroke-linecap:round;stroke-linejoin:round;stroke-opacity:1;paint-order:stroke markers fill"
       d="m 48.451571,258.67129 c 0.358048,-3.22242 0.483762,-6.47922 1.074142,-9.66727 1.010484,-5.45662 1.895446,-4.1594 3.759494,-9.1302 0.08444,-0.22518 3.959008,-12.55213 4.296563,-12.88969 1.194237,-1.19424 1.884643,2.80953 2.685355,4.29656 3.439001,6.38672 5.437687,13.47102 7.518987,20.40868 0.569023,1.89675 0.748919,4.49353 1.074139,6.44485 0.02943,0.17659 -0.179022,0.53707 0,0.53707 0.179025,0 0,-0.35805 0,-0.53707 0,-0.89512 0,-1.79024 0,-2.68535 0,-4.24763 -0.292137,-8.79086 1.074142,-12.8897 0.632942,-1.89883 2.135487,-3.44617 2.685352,-5.3707 0.413845,-1.44846 0.357354,-3.40006 1.074142,-4.83363 0.281747,-0.5635 1.07414,-1.89787 1.07414,-2.14829"
       id="path11" /><path
       style="opacity:0.689459;fill:none;fill-opacity:1;stroke:#000000;stroke-width:0.318029;stroke-linecap:round;stroke-linejoin:round;stroke-opacity:1;paint-order:stroke markers fill"
       d="m 79.601662,243.09624 c 3.634481,0.003 7.310411,-0.32067 10.741412,0.53708 0.868391,0.21709 1.802413,-0.14716 2.685351,0 2.670233,0.44503 4.692618,2.6501 6.981915,3.22242 0.34736,0.0868 0.77623,-0.19861 1.07414,0 0.33308,0.22205 0.29689,0.75389 0.53707,1.07414 1.49863,1.99817 0.83398,0.0567 2.14829,2.68535 0.79767,1.59535 2.51617,6.78321 1.61121,8.59313 -0.75764,1.51527 -3.10162,2.08788 -4.29657,2.68535 -0.80946,0.40473 -7.93614,-0.0443 -8.593125,-0.53707 -0.320249,-0.24018 -0.296886,-0.75389 -0.537072,-1.07414 -1.792975,-2.39063 -3.028982,-5.75758 -1.611209,-8.59313 0.08006,-0.16012 -0.12659,-0.41048 0,-0.53707 0.632941,-0.63294 1.790234,0 2.685351,0 3.247639,0 4.147116,0.12921 6.981915,1.07414 1.37915,0.45972 3.54596,-0.64384 4.83364,0 0.16012,0.0801 -0.12659,0.41049 0,0.53708 0.44818,0.44817 4.03943,0 4.83363,0"
       id="path12" /><path
       style="opacity:0.689459;fill:none;fill-opacity:1;stroke:#000000;stroke-width:0.318029;stroke-linecap:round;stroke-linejoin:round;stroke-opacity:1;paint-order:stroke markers fill"
       d="m 118.80781,219.46514 c 0.35805,0.7161 0.87996,1.37157 1.07414,2.14828 0.0597,0.2387 -0.0448,3.26718 0,3.7595 0.13068,1.43741 0.33295,2.86774 0.53707,4.29656 0.81437,5.70057 1.7102,11.64145 3.22242,17.18626 0.25367,0.9301 0.82048,1.75525 1.07415,2.68535 1.04539,3.8331 1.45154,8.03574 4.83363,10.74141 2.66442,2.13154 7.82081,5.3315 11.27848,5.90778 0.40349,0.0673 3.79601,0.3337 4.29657,0 0.0619,-0.0413 1.21801,-1.48789 1.07414,-1.61121 -1.16927,-1.00223 -2.44543,-1.88231 -3.7595,-2.68536 -15.3624,-9.38813 0.74763,1.21451 -9.13019,-5.3707"
       id="path13" /><path
       style="opacity:0.689459;fill:none;fill-opacity:1;stroke:#000000;stroke-width:0.318029;stroke-linecap:round;stroke-linejoin:round;stroke-opacity:1;paint-order:stroke markers fill"
       d="m 119.88195,238.26261 c 3.88932,2.49015 8.78893,0.25399 12.88969,1.07414 2.28285,0.45657 4.07172,1.07414 6.44485,1.07414"
       id="path14" /><path
       style="opacity:0.689459;fill:none;fill-opacity:1;stroke:#000000;stroke-width:0.318029;stroke-linecap:round;stroke-linejoin:round;stroke-opacity:1;paint-order:stroke markers fill"
       d="m 149.42083,239.87382 c 4.34231,2.91403 6.82879,7.21274 9.1302,11.81555 0.82694,1.65388 1.39713,4.08248 2.68535,5.37071"
       id="path15" /><path
       style="opacity:0.689459;fill:none;fill-opacity:1;stroke:#000000;stroke-width:0.318029;stroke-linecap:round;stroke-linejoin:round;stroke-opacity:1;paint-order:stroke markers fill"
       d="m 160.16224,244.70746 c 3.05469,0.18413 4.3491,1.84722 5.90778,4.29656 6.43206,10.10753 -0.92829,-0.25462 3.75949,5.37071 0.89512,1.07414 1.81189,2.1306 2.68535,3.22242 0.50014,0.62518 0.50802,1.58216 1.07414,2.14828 0.7161,0.7161 1.69539,-1.24248 2.14829,-2.14828 0.86229,-1.72458 1.07874,-3.76639 2.14828,-5.37071 0.49652,-0.74478 1.51534,-0.97826 2.14828,-1.61121 0.91285,-0.91284 1.48409,-2.11543 2.14828,-3.22242 0.4935,-0.82249 0.77419,-2.68535 1.61121,-2.68535"
       id="path16" /><path
       style="opacity:0.689459;fill:none;fill-opacity:1;stroke:#000000;stroke-width:0.318029;stroke-linecap:round;stroke-linejoin:round;stroke-opacity:1;paint-order:stroke markers fill"
       d="m 191.8494,239.33675 c 0.71609,0.53707 1.61121,0.89512 2.14828,1.61121 1.78316,2.37754 5.36669,13.84597 6.44485,16.64919 0.4613,1.19938 2.14828,2.00014 2.14828,3.22242"
       id="path17" /><path
       style="opacity:0.689459;fill:none;fill-opacity:1;stroke:#000000;stroke-width:0.318029;stroke-linecap:round;stroke-linejoin:round;stroke-opacity:1;paint-order:stroke markers fill"
       d="m 201.51667,221.61342 c 4.08386,3.26709 1.69001,0.73684 4.29656,5.37071 1.02355,1.81964 2.32483,3.48575 3.22243,5.37071 2.04685,4.29839 2.63066,9.20293 5.90777,12.88969 1.07697,1.21158 8.05606,3.96778 8.05606,1.07414"
       id="path18" /><path
       style="opacity:0.689459;fill:none;fill-opacity:1;stroke:#000000;stroke-width:0.318029;stroke-linecap:round;stroke-linejoin:round;stroke-opacity:1;paint-order:stroke markers fill"
       d="m 200.9796,235.04019 c 2.6479,0.29938 5.41204,-0.3305 8.05606,0 1.5638,0.19547 2.21453,0.88039 3.75949,0.53707 1.10528,-0.24562 2.13008,-0.77623 3.22243,-1.07414 0.88067,-0.24019 1.90259,-0.0674 2.68535,-0.53707 2.0886,-1.25317 -1.40235,-1.07414 0.53707,-1.07414"
       id="path19" /><path
       style="opacity:0.689459;fill:none;fill-opacity:1;stroke:#000000;stroke-width:0.318029;stroke-linecap:round;stroke-linejoin:round;stroke-opacity:1;paint-order:stroke markers fill"
       d="m 225.68484,225.37292 c 2.25368,3.27427 5.1597,6.88595 6.44485,10.74141 0.11323,0.33967 -0.16012,0.75389 0,1.07414 0.0801,0.16012 0.41048,-0.12659 0.53707,0 0.12659,0.12659 -0.12659,0.41048 0,0.53707 1.99209,1.99209 4.29657,-6.85356 4.29657,-8.05606 0,-0.2389 -0.16665,-1.81499 0,-2.14828 0.17902,-0.35805 0.93737,-1.07414 0.53707,-1.07414 -0.11683,0 0.1676,1.17692 0,2.68535 -0.10081,0.90726 -0.35805,1.79024 -0.53707,2.68535 -0.82758,4.1379 -0.86447,9.785 -2.68536,13.42677 -0.32029,0.64058 0.46304,2.22232 0,2.68535 -0.10256,0.10257 -10.36389,-0.49134 -11.27848,-0.53707 -4.30608,-0.2153 -8.58268,-0.87837 -12.88969,-1.07414 -3.75562,-0.17071 -7.51899,0 -11.27848,0 -0.71563,0 -5.56002,-0.47397 -6.98192,0 -1.70205,0.56735 0.34531,0.53707 0.53707,0.53707"
       id="path20" /></g></svg>
